<?xml version="1.0" encoding="utf-8"?>
<svg viewBox="16.3227 16.5249 466.905 466.905" width="466.905" height="466.905" xmlns="http://www.w3.org/2000/svg">
  <g transform="matrix(0.9999999999999999, 0, 0, 0.9999999999999999, -11.142330169677763, -10.940064430236816)">
    <title>Dots</title>
    <ellipse style="paint-order: stroke; fill: rgb(110, 114, 252);" cx="41.198" cy="41.198" rx="13.732" ry="13.732"/>
    <ellipse style="paint-order: stroke; fill: rgb(110, 114, 252);" cx="96.127" cy="41.198" rx="13.732" ry="13.732"/>
    <ellipse style="paint-order: stroke; fill: rgb(110, 114, 252);" cx="151.057" cy="41.198" rx="13.732" ry="13.732"/>
    <ellipse style="paint-order: stroke; fill: rgb(110, 114, 252);" cx="205.987" cy="41.198" rx="13.732" ry="13.732"/>
    <ellipse style="paint-order: stroke; fill: rgb(110, 114, 252);" cx="260.917" cy="41.198" rx="13.732" ry="13.732"/>
    <ellipse style="paint-order: stroke; fill: rgb(110, 114, 252);" cx="315.847" cy="41.197" rx="13.732" ry="13.732"/>
    <ellipse style="paint-order: stroke; fill: rgb(110, 114, 252);" cx="370.777" cy="41.197" rx="13.732" ry="13.732"/>
    <ellipse style="paint-order: stroke; fill: rgb(110, 114, 252);" cx="425.707" cy="41.197" rx="13.732" ry="13.732"/>
    <ellipse style="paint-order: stroke; fill: rgb(110, 114, 252);" cx="480.638" cy="41.197" rx="13.732" ry="13.732"/>
    <ellipse style="paint-order: stroke; fill: rgb(110, 114, 252);" cx="41.197" cy="96.128" rx="13.732" ry="13.732"/>
    <ellipse style="paint-order: stroke; fill: rgb(110, 114, 252);" cx="96.126" cy="96.128" rx="13.732" ry="13.732"/>
    <ellipse style="paint-order: stroke; fill: rgb(110, 114, 252);" cx="151.056" cy="96.128" rx="13.732" ry="13.732"/>
    <ellipse style="paint-order: stroke; fill: rgb(110, 114, 252);" cx="205.986" cy="96.128" rx="13.732" ry="13.732"/>
    <ellipse style="paint-order: stroke; fill: rgb(110, 114, 252);" cx="260.916" cy="96.128" rx="13.732" ry="13.732"/>
    <ellipse style="paint-order: stroke; fill: rgb(110, 114, 252);" cx="315.846" cy="96.127" rx="13.732" ry="13.732"/>
    <ellipse style="paint-order: stroke; fill: rgb(110, 114, 252);" cx="370.776" cy="96.127" rx="13.732" ry="13.732"/>
    <ellipse style="paint-order: stroke; fill: rgb(110, 114, 252);" cx="425.706" cy="96.127" rx="13.732" ry="13.732"/>
    <ellipse style="paint-order: stroke; fill: rgb(110, 114, 252);" cx="480.637" cy="96.127" rx="13.732" ry="13.732"/>
    <ellipse style="paint-order: stroke; fill: rgb(110, 114, 252);" cx="41.197" cy="151.058" rx="13.732" ry="13.732"/>
    <ellipse style="paint-order: stroke; fill: rgb(110, 114, 252);" cx="96.126" cy="151.058" rx="13.732" ry="13.732"/>
    <ellipse style="paint-order: stroke; fill: rgb(110, 114, 252);" cx="151.056" cy="151.058" rx="13.732" ry="13.732"/>
    <ellipse style="paint-order: stroke; fill: rgb(110, 114, 252);" cx="205.986" cy="151.058" rx="13.732" ry="13.732"/>
    <ellipse style="paint-order: stroke; fill: rgb(110, 114, 252);" cx="260.916" cy="151.058" rx="13.732" ry="13.732"/>
    <ellipse style="paint-order: stroke; fill: rgb(110, 114, 252);" cx="315.846" cy="151.057" rx="13.732" ry="13.732"/>
    <ellipse style="paint-order: stroke; fill: rgb(110, 114, 252);" cx="370.776" cy="151.057" rx="13.732" ry="13.732"/>
    <ellipse style="paint-order: stroke; fill: rgb(110, 114, 252);" cx="425.706" cy="151.057" rx="13.732" ry="13.732"/>
    <ellipse style="paint-order: stroke; fill: rgb(110, 114, 252);" cx="480.637" cy="151.057" rx="13.732" ry="13.732"/>
    <ellipse style="paint-order: stroke; fill: rgb(110, 114, 252);" cx="41.198" cy="205.988" rx="13.732" ry="13.732"/>
    <ellipse style="paint-order: stroke; fill: rgb(110, 114, 252);" cx="96.127" cy="205.988" rx="13.732" ry="13.732"/>
    <ellipse style="paint-order: stroke; fill: rgb(110, 114, 252);" cx="151.057" cy="205.988" rx="13.732" ry="13.732"/>
    <ellipse style="paint-order: stroke; fill: rgb(110, 114, 252);" cx="205.987" cy="205.988" rx="13.732" ry="13.732"/>
    <ellipse style="paint-order: stroke; fill: rgb(110, 114, 252);" cx="260.917" cy="205.988" rx="13.732" ry="13.732"/>
    <ellipse style="paint-order: stroke; fill: rgb(110, 114, 252);" cx="315.847" cy="205.987" rx="13.732" ry="13.732"/>
    <ellipse style="paint-order: stroke; fill: rgb(110, 114, 252);" cx="370.777" cy="205.987" rx="13.732" ry="13.732"/>
    <ellipse style="paint-order: stroke; fill: rgb(110, 114, 252);" cx="425.707" cy="205.987" rx="13.732" ry="13.732"/>
    <ellipse style="paint-order: stroke; fill: rgb(110, 114, 252);" cx="480.638" cy="205.987" rx="13.732" ry="13.732"/>
    <ellipse style="paint-order: stroke; fill: rgb(110, 114, 252);" cx="41.198" cy="260.918" rx="13.732" ry="13.732"/>
    <ellipse style="paint-order: stroke; fill: rgb(110, 114, 252);" cx="96.127" cy="260.918" rx="13.732" ry="13.732"/>
    <ellipse style="paint-order: stroke; fill: rgb(110, 114, 252);" cx="151.057" cy="260.918" rx="13.732" ry="13.732"/>
    <ellipse style="paint-order: stroke; fill: rgb(110, 114, 252);" cx="205.987" cy="260.918" rx="13.732" ry="13.732"/>
    <ellipse style="paint-order: stroke; fill: rgb(110, 114, 252);" cx="260.917" cy="260.918" rx="13.732" ry="13.732"/>
    <ellipse style="paint-order: stroke; fill: rgb(110, 114, 252);" cx="315.847" cy="260.917" rx="13.732" ry="13.732"/>
    <ellipse style="paint-order: stroke; fill: rgb(110, 114, 252);" cx="370.777" cy="260.917" rx="13.732" ry="13.732"/>
    <ellipse style="paint-order: stroke; fill: rgb(110, 114, 252);" cx="425.707" cy="260.917" rx="13.732" ry="13.732"/>
    <ellipse style="paint-order: stroke; fill: rgb(110, 114, 252);" cx="480.638" cy="260.917" rx="13.732" ry="13.732"/>
    <ellipse style="paint-order: stroke; fill: rgb(110, 114, 252);" cx="41.198" cy="315.848" rx="13.732" ry="13.732"/>
    <ellipse style="paint-order: stroke; fill: rgb(110, 114, 252);" cx="96.127" cy="315.848" rx="13.732" ry="13.732"/>
    <ellipse style="paint-order: stroke; fill: rgb(110, 114, 252);" cx="151.057" cy="315.848" rx="13.732" ry="13.732"/>
    <ellipse style="paint-order: stroke; fill: rgb(110, 114, 252);" cx="205.987" cy="315.848" rx="13.732" ry="13.732"/>
    <ellipse style="paint-order: stroke; fill: rgb(110, 114, 252);" cx="260.917" cy="315.848" rx="13.732" ry="13.732"/>
    <ellipse style="paint-order: stroke; fill: rgb(110, 114, 252);" cx="315.847" cy="315.847" rx="13.732" ry="13.732"/>
    <ellipse style="paint-order: stroke; fill: rgb(110, 114, 252);" cx="370.777" cy="315.847" rx="13.732" ry="13.732"/>
    <ellipse style="paint-order: stroke; fill: rgb(110, 114, 252);" cx="425.707" cy="315.847" rx="13.732" ry="13.732"/>
    <ellipse style="paint-order: stroke; fill: rgb(110, 114, 252);" cx="480.638" cy="315.847" rx="13.732" ry="13.732"/>
    <ellipse style="paint-order: stroke; fill: rgb(110, 114, 252);" cx="41.198" cy="370.778" rx="13.732" ry="13.732"/>
    <ellipse style="paint-order: stroke; fill: rgb(110, 114, 252);" cx="96.127" cy="370.778" rx="13.732" ry="13.732"/>
    <ellipse style="paint-order: stroke; fill: rgb(110, 114, 252);" cx="151.057" cy="370.778" rx="13.732" ry="13.732"/>
    <ellipse style="paint-order: stroke; fill: rgb(110, 114, 252);" cx="205.987" cy="370.778" rx="13.732" ry="13.732"/>
    <ellipse style="paint-order: stroke; fill: rgb(110, 114, 252);" cx="260.917" cy="370.778" rx="13.732" ry="13.732"/>
    <ellipse style="paint-order: stroke; fill: rgb(110, 114, 252);" cx="315.847" cy="370.777" rx="13.732" ry="13.732"/>
    <ellipse style="paint-order: stroke; fill: rgb(110, 114, 252);" cx="370.777" cy="370.777" rx="13.732" ry="13.732"/>
    <ellipse style="paint-order: stroke; fill: rgb(110, 114, 252);" cx="425.707" cy="370.777" rx="13.732" ry="13.732"/>
    <ellipse style="paint-order: stroke; fill: rgb(110, 114, 252);" cx="480.638" cy="370.777" rx="13.732" ry="13.732"/>
    <ellipse style="paint-order: stroke; fill: rgb(110, 114, 252);" cx="41.198" cy="425.708" rx="13.732" ry="13.732"/>
    <ellipse style="paint-order: stroke; fill: rgb(110, 114, 252);" cx="96.127" cy="425.708" rx="13.732" ry="13.732"/>
    <ellipse style="paint-order: stroke; fill: rgb(110, 114, 252);" cx="151.057" cy="425.708" rx="13.732" ry="13.732"/>
    <ellipse style="paint-order: stroke; fill: rgb(110, 114, 252);" cx="205.987" cy="425.708" rx="13.732" ry="13.732"/>
    <ellipse style="paint-order: stroke; fill: rgb(110, 114, 252);" cx="260.917" cy="425.708" rx="13.732" ry="13.732"/>
    <ellipse style="paint-order: stroke; fill: rgb(110, 114, 252);" cx="315.847" cy="425.707" rx="13.732" ry="13.732"/>
    <ellipse style="paint-order: stroke; fill: rgb(110, 114, 252);" cx="370.777" cy="425.707" rx="13.732" ry="13.732"/>
    <ellipse style="paint-order: stroke; fill: rgb(110, 114, 252);" cx="425.707" cy="425.707" rx="13.732" ry="13.732"/>
    <ellipse style="paint-order: stroke; fill: rgb(110, 114, 252);" cx="480.638" cy="425.707" rx="13.732" ry="13.732"/>
    <ellipse style="paint-order: stroke; fill: rgb(110, 114, 252);" cx="41.198" cy="480.638" rx="13.732" ry="13.732"/>
    <ellipse style="paint-order: stroke; fill: rgb(110, 114, 252);" cx="96.127" cy="480.638" rx="13.732" ry="13.732"/>
    <ellipse style="paint-order: stroke; fill: rgb(110, 114, 252);" cx="151.057" cy="480.638" rx="13.732" ry="13.732"/>
    <ellipse style="paint-order: stroke; fill: rgb(110, 114, 252);" cx="205.987" cy="480.638" rx="13.732" ry="13.732"/>
    <ellipse style="paint-order: stroke; fill: rgb(110, 114, 252);" cx="260.917" cy="480.638" rx="13.732" ry="13.732"/>
    <ellipse style="paint-order: stroke; fill: rgb(110, 114, 252);" cx="315.847" cy="480.637" rx="13.732" ry="13.732"/>
    <ellipse style="paint-order: stroke; fill: rgb(110, 114, 252);" cx="370.777" cy="480.637" rx="13.732" ry="13.732"/>
    <ellipse style="paint-order: stroke; fill: rgb(110, 114, 252);" cx="425.707" cy="480.637" rx="13.732" ry="13.732"/>
    <ellipse style="paint-order: stroke; fill: rgb(110, 114, 252);" cx="480.638" cy="480.637" rx="13.732" ry="13.732"/>
  </g>
</svg>